<svg id="Layer_2" data-name="Layer 2" xmlns="http://www.w3.org/2000/svg" viewBox="0 0 285 115.72"><defs><style>.cls-1{fill:#fff;}</style></defs><title>nath-clinic-logo</title><path class="cls-1" d="M15.58,24.52a4.45,4.45,0,0,1-3.1,1.08,3.54,3.54,0,0,1-2.39-.79,3.08,3.08,0,0,1-.95-2.42V15H6.74V13.36h2.4V10.48L11.06,10v3.41H15.5V15H11.06v7a1.67,1.67,0,0,0,.49,1.31,1.88,1.88,0,0,0,1.31.44,2.8,2.8,0,0,0,2-.89Z" transform="translate(-6.66 -7.84)"/><path class="cls-1" d="M27.48,14.3a4.3,4.3,0,0,1,1.32,3.38v7.68H26.88v-7a3.83,3.83,0,0,0-.8-2.71,2.83,2.83,0,0,0-2.15-.84,3.9,3.9,0,0,0-1.79.43,3.35,3.35,0,0,0-1.39,1.38A4.77,4.77,0,0,0,20.21,19v6.36H18.29V7.84h1.92v7.32a3.79,3.79,0,0,1,1.62-1.54,5.1,5.1,0,0,1,2.29-.5A4.87,4.87,0,0,1,27.48,14.3Z" transform="translate(-6.66 -7.84)"/><path class="cls-1" d="M43.34,20.08h-9a4.33,4.33,0,0,0,1.21,2.83,3.72,3.72,0,0,0,2.7,1,4.72,4.72,0,0,0,2.2-.46,2.36,2.36,0,0,0,1.19-1.32L43.2,23a5,5,0,0,1-1.92,1.94,6.25,6.25,0,0,1-3.07.67,5.54,5.54,0,0,1-4.26-1.66,6.45,6.45,0,0,1-1.55-4.58,6.65,6.65,0,0,1,1.48-4.58,5.32,5.32,0,0,1,4.19-1.66,5.48,5.48,0,0,1,2.9.74,4.78,4.78,0,0,1,1.85,2,6.4,6.4,0,0,1,.62,2.86A9.56,9.56,0,0,1,43.34,20.08Zm-7.84-4.34a4.28,4.28,0,0,0-1.19,2.64h7.27a4.39,4.39,0,0,0-1.1-2.63,3.21,3.21,0,0,0-2.42-.95A3.53,3.53,0,0,0,35.51,15.74Z" transform="translate(-6.66 -7.84)"/><path class="cls-1" d="M44,74H30.54L19.74,54.34l-2.52-5.4H17.1l.24,7.86V74H6.66V34.36H20L30.84,54l2.58,5.4h.06l-.24-7.86V34.36H44Z" transform="translate(-6.66 -7.84)"/><path class="cls-1" d="M82.86,67.06l-1,6.42a8.75,8.75,0,0,1-4.26,1.08A11.73,11.73,0,0,1,72,73.33a6,6,0,0,1-3-3.63,8.94,8.94,0,0,1-4,3.57,15.34,15.34,0,0,1-6.69,1.29q-4.56,0-6.93-1.89A6.54,6.54,0,0,1,49,67.24a7.71,7.71,0,0,1,2.7-6.12q2.7-2.34,9-3.6l6.36-1.32V55.06a3.79,3.79,0,0,0-.9-2.7,3.29,3.29,0,0,0-2.52-1,4.5,4.5,0,0,0-2.94.93,4.59,4.59,0,0,0-1.38,3.21l-10-2.1A10.48,10.48,0,0,1,53.73,46q3.69-2.64,10.35-2.64,15,0,15,11.94v9.6q0,2.4,2.1,2.4A5,5,0,0,0,82.86,67.06Zm-17-.51a3.14,3.14,0,0,0,1.17-2.61V61.18l-3.3.84q-3.12.78-3.12,3.12a2.18,2.18,0,0,0,.69,1.74,2.69,2.69,0,0,0,1.83.6A4.25,4.25,0,0,0,65.91,66.55Z" transform="translate(-6.66 -7.84)"/><path class="cls-1" d="M107.58,72.4a12.34,12.34,0,0,1-3.9,1.56,20.26,20.26,0,0,1-4.8.6q-6,0-9-2.4t-3-7.8V52.3H82V44h4.86V37.42L99,34.06V44h8.22V52.3H99V62.44a4,4,0,0,0,.93,3,4,4,0,0,0,2.85.9,7.8,7.8,0,0,0,4-1Z" transform="translate(-6.66 -7.84)"/><path class="cls-1" d="M140.67,46.06q2.61,2.7,2.61,7.62V74H131.16v-17a5.88,5.88,0,0,0-.78-3.48,2.7,2.7,0,0,0-2.28-1,3.56,3.56,0,0,0-3,1.44A7,7,0,0,0,124,58.18V74H111.9V31.6H124V49.78a10.39,10.39,0,0,1,3.72-4.8,10,10,0,0,1,5.7-1.62A9.59,9.59,0,0,1,140.67,46.06Z" transform="translate(-6.66 -7.84)"/><path class="cls-1" d="M181.38,67.06l-1,6.42a8.75,8.75,0,0,1-4.26,1.08,11.73,11.73,0,0,1-5.67-1.23,6,6,0,0,1-3-3.63,8.94,8.94,0,0,1-4,3.57,15.34,15.34,0,0,1-6.69,1.29q-4.56,0-6.93-1.89a6.54,6.54,0,0,1-2.37-5.43,7.71,7.71,0,0,1,2.7-6.12q2.7-2.34,9-3.6l6.36-1.32V55.06a3.79,3.79,0,0,0-.9-2.7,3.29,3.29,0,0,0-2.52-1,4.5,4.5,0,0,0-2.94.93,4.59,4.59,0,0,0-1.38,3.21l-10-2.1A10.48,10.48,0,0,1,152.25,46q3.69-2.64,10.35-2.64,15,0,15,11.94v9.6q0,2.4,2.1,2.4A5,5,0,0,0,181.38,67.06Zm-17-.51a3.14,3.14,0,0,0,1.17-2.61V61.18l-3.3.84q-3.12.78-3.12,3.12a2.18,2.18,0,0,0,.69,1.74,2.69,2.69,0,0,0,1.83.6A4.25,4.25,0,0,0,164.43,66.55Z" transform="translate(-6.66 -7.84)"/><path class="cls-1" d="M213,46.06q2.61,2.7,2.61,7.62V74H203.46v-17a5.88,5.88,0,0,0-.78-3.48,2.7,2.7,0,0,0-2.28-1,3.57,3.57,0,0,0-3,1.41,7.15,7.15,0,0,0-1.08,4.35V74H184.2V44h10.92l.3,6.18a10.5,10.5,0,0,1,4-5,11.3,11.3,0,0,1,6.36-1.74A9.59,9.59,0,0,1,213,46.06Z" transform="translate(-6.66 -7.84)"/><path class="cls-1" d="M222.24,40.06A4.94,4.94,0,0,1,220.68,36a5,5,0,0,1,1.56-4.14q1.56-1.26,5.22-1.26t5.22,1.26A5,5,0,0,1,234.24,36a4.94,4.94,0,0,1-1.56,4.08q-1.56,1.26-5.22,1.26T222.24,40.06ZM233.52,74H221.4V44h12.12Z" transform="translate(-6.66 -7.84)"/><path class="cls-1" d="M269.52,61.72H249.78a5.35,5.35,0,0,0,1.62,3.54,5.48,5.48,0,0,0,3.54,1q3.66,0,4.5-2.88l9.78,2.82a10,10,0,0,1-5,6.21,18.86,18.86,0,0,1-9.33,2.13q-8.16,0-12.48-4T238.14,59q0-7.44,4.23-11.52t11.91-4.08q7.5,0,11.52,4t4,10.89A16.24,16.24,0,0,1,269.52,61.72Zm-18.27-9a6.56,6.56,0,0,0-1.47,3.72h8.7a7.08,7.08,0,0,0-1.29-3.66,3.49,3.49,0,0,0-2.85-1.2A4.12,4.12,0,0,0,251.25,52.72Z" transform="translate(-6.66 -7.84)"/><path class="cls-1" d="M286.44,62.74a4.86,4.86,0,0,0,.6,2.76,2.33,2.33,0,0,0,2,.84,8.1,8.1,0,0,0,2.58-.42l-.66,6.9a8.79,8.79,0,0,1-3,1.26,16.19,16.19,0,0,1-3.87.48q-5.22,0-7.5-2.34t-2.28-7.68V31.6h12.12Z" transform="translate(-6.66 -7.84)"/><path class="cls-1" d="M169.48,120.9a16.13,16.13,0,0,1-9.18,2.66,17.27,17.27,0,0,1-9.07-2.32,15.42,15.42,0,0,1-6-6.61,22.72,22.72,0,0,1-2.1-10.11,22.77,22.77,0,0,1,2.1-10.08,15.4,15.4,0,0,1,6-6.64,18.89,18.89,0,0,1,17.89-.14,13.31,13.31,0,0,1,5.4,6.44l-4.42,2.07a10,10,0,0,0-3.58-4.87,10.32,10.32,0,0,0-6-1.62,12.42,12.42,0,0,0-6.66,1.76,11.59,11.59,0,0,0-4.42,5.12,18.64,18.64,0,0,0-1.57,8q0,6.94,3.33,10.89a11.28,11.28,0,0,0,9.1,3.95,11.11,11.11,0,0,0,6.5-1.9,10.38,10.38,0,0,0,3.92-5.6l4.48,1.68A14.75,14.75,0,0,1,169.48,120.9Z" transform="translate(-6.66 -7.84)"/><path class="cls-1" d="M187.23,115.5a4.91,4.91,0,0,0,.64,2.94,2.9,2.9,0,0,0,2.38.81,10.85,10.85,0,0,0,2-.17,12.62,12.62,0,0,0,2-.62l-.73,4.31a10.52,10.52,0,0,1-4.14.78,6.46,6.46,0,0,1-5.07-1.85q-1.65-1.85-1.65-5.66V82.12h4.48Z" transform="translate(-6.66 -7.84)"/><path class="cls-1" d="M199.91,88.7a3.67,3.67,0,1,1,2.44.92A3.3,3.3,0,0,1,199.91,88.7Zm4.68,34.3h-4.48V95h4.48Z" transform="translate(-6.66 -7.84)"/><path class="cls-1" d="M236.45,97.18q3.08,2.75,3.08,7.9V123h-4.48V106.65q0-4.37-1.88-6.33a6.62,6.62,0,0,0-5-2,9.27,9.27,0,0,0-4.2,1,7.67,7.67,0,0,0-3.22,3.19,11.14,11.14,0,0,0-1.26,5.57V123H215V95h3.92l.28,4.37a8.75,8.75,0,0,1,3.86-3.72,12.47,12.47,0,0,1,5.54-1.2A11.35,11.35,0,0,1,236.45,97.18Z" transform="translate(-6.66 -7.84)"/><path class="cls-1" d="M249.47,88.7a3.67,3.67,0,1,1,2.44.92A3.3,3.3,0,0,1,249.47,88.7Zm4.68,34.3h-4.48V95h4.48Z" transform="translate(-6.66 -7.84)"/><path class="cls-1" d="M283.46,96.37a12.8,12.8,0,0,1,4.51,5.52l-4.26,2q-1.79-5.54-7.45-5.54a8.14,8.14,0,0,0-6.58,2.83q-2.38,2.83-2.38,7.81t2.38,7.81a8.13,8.13,0,0,0,6.58,2.83,8.54,8.54,0,0,0,5.24-1.48,7,7,0,0,0,2.6-4.28l4.14,1.46a12.63,12.63,0,0,1-4.48,6.08,12.4,12.4,0,0,1-7.39,2.16q-6.33,0-9.94-3.86T262.83,109q0-6.83,3.61-10.7t9.94-3.86A12.44,12.44,0,0,1,283.46,96.37Z" transform="translate(-6.66 -7.84)"/></svg>