<svg id="Layer_1" data-name="Layer 1" xmlns="http://www.w3.org/2000/svg" viewBox="0 0 550.64 57.68"><defs><style>.cls-1{fill:#fff;}</style></defs><title>white-logo</title><path class="cls-1" d="M18.75,45.53c1.79,0,3.36-.89,3.36-2.34V35.64h15v9.13c0,5.63-7.21,12.91-18.4,12.91S0,50.4,0,44.77V12.91C0,7.28,7.62,0,18.75,0s18.4,7.28,18.4,12.91V22h-15V14.49c0-1.44-1.58-2.34-3.36-2.34s-3.3.89-3.3,2.34v28.7c0,1.44,1.51,2.34,3.3,2.34"/><path class="cls-1" d="M57.2,56.31H44.08L53.83,1.37H71.48l9.89,54.93H66.12l-.75-7.21H58.3l-1.1,7.21m5-36.39L59.94,37.29h4.19Z"/><path class="cls-1" d="M105.88,57.68c-11.26,0-18.06-5.08-18.06-13.6V37.83h12.91v4.74c0,2.13,1.65,3.64,4.46,3.64s4.12-1.24,4.12-3.57c0-4.53-3.43-6.25-11.19-11.12C91.19,27.19,88.23,21,88.23,14.76,88.23,7.28,94.35,0,106.29,0,116,0,122.7,6.11,122.7,13.6v5.56H109.79V14.63a3.24,3.24,0,0,0-3.5-3.16c-1.92,0-3.91,1.1-3.91,3.23,0,5.49,1.92,6.39,9.75,10.64,7.21,3.91,11.33,10.78,11.33,17.58,0,7.55-6.25,14.76-17.58,14.76"/><polyline class="cls-1" points="160.88 12.15 146.6 12.15 146.6 22.93 156.01 22.93 156.01 33.37 146.6 33.37 146.6 44.77 160.88 44.77 160.88 56.31 131.84 56.31 131.84 1.37 160.88 1.37 160.88 12.15"/><path class="cls-1" d="M187.11,57.68c-11.26,0-18.06-5.08-18.06-13.6V37.83H182v4.74c0,2.13,1.65,3.64,4.46,3.64s4.12-1.24,4.12-3.57c0-4.53-3.43-6.25-11.19-11.12-6.93-4.33-9.89-10.51-9.89-16.75C169.46,7.28,175.58,0,187.52,0c9.68,0,16.41,6.11,16.41,13.6v5.56H191V14.63a3.24,3.24,0,0,0-3.5-3.16c-1.92,0-3.91,1.1-3.91,3.23,0,5.49,1.92,6.39,9.75,10.64,7.21,3.91,11.33,10.78,11.33,17.58,0,7.55-6.25,14.76-17.58,14.76"/><path class="cls-1" d="M246.2,1.3V56.58h55.29V1.3H246.2m38.33,38H263.21v-21h21.32Z"/><path class="cls-1" d="M308.73,1.3V56.58H364V1.3H308.73M350.2,41.66H322.62V15H350.2Z"/><path class="cls-1" d="M371.09,1.33V56.62h55.29V1.33H371.09m45,44.85H381.77V11.81h34.37Z"/><path class="cls-1" d="M433.59,1.28V56.57h55.29V1.28H433.59m48,48.29H440.33V8.31H481.6Z"/><path class="cls-1" d="M495.35,1.38V56.67h55.29V1.38H495.35M549,55H497V3h52Z"/></svg>